<?xml version="1.0" encoding="utf-8"?>
<!-- Generator: Adobe Illustrator 24.0.0, SVG Export Plug-In . SVG Version: 6.00 Build 0)  -->
<svg version="1.1" id="Capa_1" xmlns="http://www.w3.org/2000/svg" xmlns:xlink="http://www.w3.org/1999/xlink" x="0px" y="0px"
	 viewBox="0 0 512 512" style="enable-background:new 0 0 512 512;" xml:space="preserve">
<style type="text/css">
	.st0{fill:#98A6AD;}
	.st1{fill:#DB3159;}
</style>
<path class="st0" d="M450.2,407c-1.5-1-12.8-8.9-24.2-32.9c-20.8-44.1-25.2-106.2-25.2-150.5c0-0.2,0-0.4,0-0.6
	c-0.2-58.6-35.3-109.1-85.5-131.8V56.5c0-31.5-25.5-57-56.9-57h-4.7c-31.4,0-56.9,25.6-56.9,57v34.7
	c-50.4,22.7-85.5,73.5-85.5,132.3c0,44.3-4.4,106.4-25.2,150.5C74.6,398,63.3,406,61.8,407c-6.3,2.9-9.5,9.7-8,16.6
	c1.5,6.9,8,11.7,15,11.7h109.9c0.6,42.1,35,76.2,77.2,76.2s76.6-34.1,77.2-76.2h109.9c7.1,0,13.6-4.8,15-11.7
	C459.7,416.7,456.5,409.9,450.2,407z M226.7,56.5c0-14.9,12.1-27,26.9-27h4.7c14.9,0,26.9,12.1,26.9,27v24.9c-9.5-2-19.3-3-29.3-3
	c-10,0-19.8,1-29.3,3L226.7,56.5L226.7,56.5z M256,481.5c-25.7,0-46.6-20.6-47.2-46.2h94.4C302.6,460.8,281.7,481.5,256,481.5z
	 M316.4,405.2c0,0-213.4,0-213.4,0c2.6-4,5.2-8.6,7.9-13.8c20.1-39.6,30.3-96.1,30.3-167.9c0-63.4,51.5-115,114.8-115
	s114.8,51.6,114.8,115.1c0,0.2,0,0.4,0,0.6c0.1,71.5,10.3,127.8,30.3,167.3c2.6,5.2,5.3,9.8,7.9,13.8L316.4,405.2z"/>
<circle class="st1" cx="370.3" cy="179.4" r="85"/>
</svg>
