<?xml version="1.0" encoding="utf-8"?>
<!-- Generator: Adobe Illustrator 24.0.0, SVG Export Plug-In . SVG Version: 6.00 Build 0)  -->
<svg version="1.1" id="Layer_1" xmlns="http://www.w3.org/2000/svg" xmlns:xlink="http://www.w3.org/1999/xlink" x="0px" y="0px"
	 viewBox="0 0 400 400" style="enable-background:new 0 0 400 400;" xml:space="preserve">
<g>
	<path d="M304.4,143.6H95.6c-5.5,0-10-2.7-10-6.1V130c0-3.3,4.5-6.1,10-6.1h208.9c5.5,0,10,2.7,10,6.1v7.5
		C314.4,140.9,310,143.6,304.4,143.6z"/>
</g>
<g>
	<path d="M304.4,209.8H95.6c-5.5,0-10-2.7-10-6.1v-7.5c0-3.3,4.5-6.1,10-6.1h208.9c5.5,0,10,2.7,10,6.1v7.5
		C314.4,207.2,310,209.8,304.4,209.8z"/>
</g>
<g>
	<path d="M304.4,276.1H95.6c-5.5,0-10-2.7-10-6.1v-7.5c0-3.3,4.5-6.1,10-6.1h208.9c5.5,0,10,2.7,10,6.1v7.5
		C314.4,273.4,310,276.1,304.4,276.1z"/>
</g>
</svg>
