<?xml version="1.0" encoding="utf-8"?>
<!-- Generator: Adobe Illustrator 24.0.0, SVG Export Plug-In . SVG Version: 6.00 Build 0)  -->
<svg version="1.1" id="Layer_2" xmlns="http://www.w3.org/2000/svg" xmlns:xlink="http://www.w3.org/1999/xlink" x="0px" y="0px"
	 viewBox="0 0 800 400" style="enable-background:new 0 0 800 400;" xml:space="preserve">
<style type="text/css">
	.st0{fill:#FFFFFF;}
	.st1{font-family:'Montserrat-SemiBold';}
	.st2{font-size:44.6192px;}
</style>
<g>
	<path class="st0" d="M337.6,184.5c1.6,2.1,2.4,4.8,2.4,7.9c0,4.4-1.7,7.7-5,10.1c-3.4,2.4-8.2,3.6-14.7,3.6h-25v-50.4h23.6
		c5.9,0,10.5,1.2,13.7,3.5c3.2,2.3,4.8,5.5,4.8,9.6c0,2.5-0.6,4.7-1.7,6.6c-1.2,1.9-2.7,3.4-4.7,4.5
		C333.7,180.8,335.9,182.4,337.6,184.5z M304.6,163.1V177h13.2c3.3,0,5.8-0.6,7.5-1.8c1.7-1.2,2.6-2.9,2.6-5.1c0-2.3-0.9-4-2.6-5.2
		c-1.8-1.2-4.3-1.8-7.5-1.8H304.6z M330.6,191.5c0-4.8-3.6-7.3-10.9-7.3h-15.1v14.5h15.1C327,198.8,330.6,196.4,330.6,191.5z"/>
	<path class="st0" d="M348.7,204.5c-1.5-1.4-2.2-3.2-2.2-5.4c0-2.2,0.7-4.1,2.1-5.5c1.4-1.4,3.2-2.1,5.3-2.1c2.1,0,3.9,0.7,5.3,2.1
		c1.4,1.4,2.1,3.2,2.1,5.5c0,2.2-0.7,4-2.2,5.4c-1.5,1.4-3.2,2.1-5.3,2.1C351.9,206.6,350.1,205.9,348.7,204.5z"/>
	<path class="st0" d="M376.1,203.5c-4.1-2.2-7.4-5.3-9.7-9.3c-2.3-4-3.5-8.4-3.5-13.3s1.2-9.3,3.5-13.3c2.3-4,5.6-7,9.7-9.3
		c4.1-2.2,8.8-3.3,13.9-3.3c5.1,0,9.8,1.1,13.9,3.3c4.1,2.2,7.4,5.3,9.7,9.2c2.3,3.9,3.5,8.4,3.5,13.3c0,4.9-1.2,9.4-3.5,13.3
		c-2.4,3.9-5.6,7-9.7,9.2c-4.1,2.2-8.8,3.3-13.9,3.3C384.9,206.8,380.2,205.7,376.1,203.5z M399.1,196.4c2.7-1.5,4.8-3.6,6.3-6.3
		c1.5-2.7,2.3-5.7,2.3-9.1c0-3.4-0.8-6.4-2.3-9.1c-1.5-2.7-3.6-4.8-6.3-6.3c-2.7-1.5-5.7-2.3-9.1-2.3c-3.4,0-6.4,0.8-9.1,2.3
		c-2.7,1.5-4.8,3.6-6.3,6.3c-1.5,2.7-2.3,5.7-2.3,9.1c0,3.4,0.8,6.4,2.3,9.1c1.5,2.7,3.6,4.8,6.3,6.3c2.7,1.5,5.7,2.3,9.1,2.3
		C393.3,198.6,396.4,197.9,399.1,196.4z"/>
	<path class="st0" d="M451.4,203.5c-4.1-2.2-7.4-5.3-9.7-9.3c-2.4-4-3.5-8.4-3.5-13.3s1.2-9.3,3.5-13.3c2.3-4,5.6-7,9.7-9.3
		c4.1-2.2,8.8-3.3,13.9-3.3c5.1,0,9.8,1.1,13.9,3.3s7.4,5.3,9.7,9.2c2.3,3.9,3.5,8.4,3.5,13.3c0,4.9-1.2,9.4-3.5,13.3
		c-2.3,3.9-5.6,7-9.7,9.2c-4.1,2.2-8.8,3.3-13.9,3.3C460.1,206.8,455.5,205.7,451.4,203.5z M474.3,196.4c2.7-1.5,4.8-3.6,6.3-6.3
		c1.5-2.7,2.3-5.7,2.3-9.1c0-3.4-0.8-6.4-2.3-9.1c-1.5-2.7-3.6-4.8-6.3-6.3c-2.7-1.5-5.7-2.3-9.1-2.3c-3.4,0-6.4,0.8-9.1,2.3
		c-2.7,1.5-4.8,3.6-6.3,6.3c-1.5,2.7-2.3,5.7-2.3,9.1c0,3.4,0.8,6.4,2.3,9.1c1.5,2.7,3.6,4.8,6.3,6.3c2.7,1.5,5.7,2.3,9.1,2.3
		C468.6,198.6,471.6,197.9,474.3,196.4z"/>
	<path class="st0" d="M535.7,185l-8,8.2v12.9h-9.4v-50.4h9.4v25.8l24.9-25.8h10.5L542,178.3l22.4,27.8h-10.9L535.7,185z"/>
	<path class="st0" d="M608.2,155.8h9.4v50.4h-9.4V155.8z"/>
	<path class="st0" d="M656.6,163.7H640v-7.9h42.7v7.9H666v42.4h-9.4V163.7z"/>
	<path class="st0" d="M422.3,204.5c-1.5-1.4-2.2-3.2-2.2-5.4c0-2.2,0.7-4.1,2.1-5.5c1.4-1.4,3.2-2.1,5.3-2.1c2.1,0,3.9,0.7,5.3,2.1
		c1.4,1.4,2.1,3.2,2.1,5.5c0,2.2-0.7,4-2.2,5.4c-1.5,1.4-3.2,2.1-5.3,2.1C425.5,206.6,423.8,205.9,422.3,204.5z"/>
	<path class="st0" d="M498.4,204.5c-1.5-1.4-2.2-3.2-2.2-5.4c0-2.2,0.7-4.1,2.1-5.5c1.4-1.4,3.2-2.1,5.3-2.1c2.1,0,3.9,0.7,5.3,2.1
		c1.4,1.4,2.1,3.2,2.1,5.5c0,2.2-0.7,4-2.2,5.4c-1.5,1.4-3.2,2.1-5.3,2.1C501.6,206.6,499.8,205.9,498.4,204.5z"/>
	<path class="st0" d="M570.3,204.5c-1.5-1.4-2.2-3.2-2.2-5.4c0-2.2,0.7-4.1,2.1-5.5c1.4-1.4,3.2-2.1,5.3-2.1c2.1,0,3.9,0.7,5.3,2.1
		c1.4,1.4,2.1,3.2,2.1,5.5c0,2.2-0.7,4-2.2,5.4c-1.5,1.4-3.2,2.1-5.3,2.1C573.5,206.6,571.7,205.9,570.3,204.5z"/>
	<path class="st0" d="M624.9,204.5c-1.5-1.4-2.2-3.2-2.2-5.4c0-2.2,0.7-4.1,2.1-5.5c1.4-1.4,3.2-2.1,5.3-2.1c2.1,0,3.9,0.7,5.3,2.1
		c1.4,1.4,2.1,3.2,2.1,5.5c0,2.2-0.7,4-2.2,5.4c-1.5,1.4-3.2,2.1-5.3,2.1C628.1,206.6,626.3,205.9,624.9,204.5z"/>
	<path class="st0" d="M677.4,204.5c-1.5-1.4-2.2-3.2-2.2-5.4c0-2.2,0.7-4.1,2.1-5.5c1.4-1.4,3.2-2.1,5.3-2.1c2.1,0,3.9,0.7,5.3,2.1
		c1.4,1.4,2.1,3.2,2.1,5.5c0,2.2-0.7,4-2.2,5.4c-1.5,1.4-3.2,2.1-5.3,2.1C680.6,206.6,678.9,205.9,677.4,204.5z"/>
</g>
<text transform="matrix(1 0 0 1 295.2519 287.6885)" class="st0 st1 st2">All About Agile</text>
<path class="st0" d="M87.7,227.3h47.8V168h-11.8v47.4H87.7v-83.3h95.2v-11.8h-107v202.2h47.8v-11.8H87.7V227.3z"/>
<path class="st0" d="M206.6,120.3v11.8h35.5v12.2H99.9v59.2h11.8v-47.4h35.5v82.9h-23.7V251h23.7v11.8h-35.5v-23.7H99.9v35.5h59.2
	V156.2H254v-24.1h12.2v59.6h-71.5v71.1h-11.8v-82.9h29.6V168H171v106.6h35.5v-71.1h11.8v23.7H254v-11.8h-23.7v-11.8h35.9v35.5h-47.8
	v47.4H99.9v11.8h154v-35.5h-11.8v23.7h-11.8V251h35.9v59.6H147.3v11.8h130.7V120.3H206.6z"/>
<path class="st0" d="M230.3,168H254v11.8h-23.7V168z"/>
</svg>
